# Blender 4.4.3
# www.blender.org
mtllib tile_outline.mtl
o Cube
v 1.062654 0.540661 -1.062654
v 1.062654 0.460973 -1.062654
v 1.062654 0.540661 1.062654
v 1.062654 0.460973 1.062654
v -1.062654 0.540661 -1.062654
v -1.062654 0.460973 -1.062654
v -1.062654 0.540661 1.062654
v -1.062654 0.460973 1.062654
v -1.022901 0.462463 -1.022901
v -1.022901 0.462463 1.022901
v 1.022901 0.462463 -1.022901
v 1.022901 0.539171 -1.022901
v -1.022901 0.539171 1.022901
v 1.022901 0.539171 1.022901
v 1.022901 0.462463 1.022901
v -1.022901 0.539171 -1.022901
vn -1.0000 -0.0000 -0.0000
vn -0.0000 -0.0000 -1.0000
vn 1.0000 -0.0000 -0.0000
vn -0.0000 -0.0000 1.0000
vn 0.0375 0.9993 -0.0000
vn -0.0375 0.9993 -0.0000
vn -0.0375 -0.9993 -0.0000
vn 0.0375 -0.9993 -0.0000
vn -0.0000 0.9993 -0.0375
vn -0.0000 -0.9993 -0.0375
vn -0.0000 0.9993 0.0375
vn -0.0000 -0.9993 0.0375
vt 0.625000 0.000000
vt 0.375000 0.250000
vt 0.375000 0.000000
vt 0.375000 1.000000
vt 0.625000 0.750000
vt 0.375000 0.750000
vt 0.625000 0.500000
vt 0.375000 0.500000
vt 0.625000 0.250000
vt 0.625000 1.000000
s 0
usemtl Material
f 13/1/1 9/2/1 10/3/1
f 8/4/2 3/5/2 4/6/2
f 6/2/3 7/1/3 8/3/3
f 14/5/4 10/4/4 15/6/4
f 4/6/1 1/7/1 2/8/1
f 2/8/4 5/9/4 6/2/4
f 12/7/3 15/6/3 11/8/3
f 16/9/2 11/8/2 9/2/2
f 4/6/5 11/8/5 15/6/5
f 6/2/6 10/3/6 9/2/6
f 7/1/7 16/9/7 13/1/7
f 1/7/8 14/5/8 12/7/8
f 2/8/9 9/2/9 11/8/9
f 5/9/10 12/7/10 16/9/10
f 8/4/11 15/6/11 10/4/11
f 3/5/12 13/10/12 14/5/12
f 13/1/1 16/9/1 9/2/1
f 8/4/2 7/10/2 3/5/2
f 6/2/3 5/9/3 7/1/3
f 14/5/4 13/10/4 10/4/4
f 4/6/1 3/5/1 1/7/1
f 2/8/4 1/7/4 5/9/4
f 12/7/3 14/5/3 15/6/3
f 16/9/2 12/7/2 11/8/2
f 4/6/5 2/8/5 11/8/5
f 6/2/6 8/3/6 10/3/6
f 7/1/7 5/9/7 16/9/7
f 1/7/8 3/5/8 14/5/8
f 2/8/9 6/2/9 9/2/9
f 5/9/10 1/7/10 12/7/10
f 8/4/11 4/6/11 15/6/11
f 3/5/12 7/10/12 13/10/12
