# Blender 4.4.3
# www.blender.org
mtllib tile_boulder.mtl
o Plane.001
v 1.000000 0.472256 -0.750000
v 0.966506 0.472256 -0.875000
v 1.000000 -0.472256 -0.750000
v 1.000000 0.472256 0.750000
v 0.966506 0.472256 0.875000
v 1.000000 -0.472256 0.750000
v 0.966506 -0.472256 0.875000
v 0.875000 -0.472256 0.966506
v 0.750000 -0.472256 1.000000
v 0.875000 0.472256 0.966506
v 0.750000 0.472256 1.000000
v -0.750000 0.472256 1.000000
v -0.750000 -0.472256 1.000000
v -0.875000 0.472256 0.966506
v -0.875000 -0.472256 0.966506
v -0.966506 0.472256 0.875000
v -0.966506 -0.472256 0.875000
v -1.000000 0.472256 0.750000
v -1.000000 -0.472256 0.750000
v -1.000000 0.472256 -0.750000
v -0.966506 0.472256 -0.875000
v -1.000000 -0.472256 -0.750000
v -0.966506 -0.472256 -0.875000
v -0.875000 -0.472256 -0.966506
v -0.750000 -0.472256 -1.000000
v -0.875000 0.472256 -0.966506
v -0.750000 0.472256 -1.000000
v 0.750000 0.472256 -1.000000
v 0.875000 0.472256 -0.966506
v 0.750000 -0.472256 -1.000000
v 0.875000 -0.472256 -0.966506
v 0.966506 -0.472256 -0.875000
v 0.180855 0.771215 0.703903
v -0.515283 0.822854 0.443097
v -0.817041 0.787507 -0.643642
v 0.132388 0.864175 -0.763276
v 0.469470 0.847812 -0.053400
v -0.142467 1.214190 -0.026697
v 0.797150 0.409647 0.208939
v 0.756029 0.418569 -0.413080
v -0.067036 0.429286 0.846031
v 0.608661 0.406572 0.609192
v -0.905996 0.427145 0.241949
v -0.771565 0.410933 0.711611
v -0.701121 0.407949 -0.900858
v -0.951420 0.406618 -0.332443
v 0.732492 0.426064 -0.839801
v -0.014426 0.409413 -0.972760
v 0.502059 0.915337 0.314611
v -0.264283 0.861171 0.664363
v -0.846961 0.913838 -0.068191
v -0.448600 0.861647 -0.841269
v 0.391435 1.020850 -0.512724
v 0.103120 1.213229 0.368120
v 0.100514 1.130693 -0.065956
v -0.390679 1.231719 0.240780
v -0.509359 1.259444 -0.368609
v -0.053251 1.149089 -0.412936
v 0.492791 0.683390 0.853854
v -0.047529 0.683390 0.647584
v -0.047529 0.683390 0.062070
v 0.509331 0.683390 -0.118868
v 0.884489 0.683387 0.446182
v 0.358070 0.991213 0.362634
v 0.945241 0.434350 0.704369
v 0.910254 0.434350 0.257093
v 0.357211 0.434350 0.916966
v 0.707960 0.434350 0.879679
v -0.174188 0.434350 0.526904
v 0.028105 0.434350 0.805338
v 0.028105 0.434350 -0.095685
v -0.174188 0.434350 0.182749
v 0.682737 0.434350 -0.095685
v 0.355421 0.434350 -0.202036
v 0.769811 0.727113 0.689242
v 0.210830 0.727113 0.810612
v -0.118273 0.727112 0.354827
v 0.209039 0.727113 -0.095682
v 0.740439 0.727113 0.081674
v 0.471110 0.908047 0.707597
v 0.673404 0.908046 0.429170
v 0.118575 0.908047 0.526904
v 0.118575 0.908047 0.182750
v 0.445887 0.908048 0.076398
v 0.966506 0.472256 -0.875000
v 1.000000 0.472256 -0.750000
v 1.000000 0.472256 0.750000
v 0.966506 0.472256 0.875000
v 0.966506 -0.472256 0.875000
v 1.000000 -0.472256 0.750000
v 1.000000 -0.472256 -0.750000
v 0.875000 -0.472256 0.966506
v 0.750000 -0.472256 1.000000
v 0.875000 0.472256 0.966506
v 0.750000 0.472256 1.000000
v -0.750000 0.472256 1.000000
v -0.875000 0.472256 0.966506
v -0.875000 0.472256 0.966506
v -0.875000 -0.472256 0.966506
v -0.875000 -0.472256 0.966506
v -0.966506 0.472256 0.875000
v -1.000000 0.472256 0.750000
v -1.000000 0.472256 -0.750000
v -0.966506 0.472256 -0.875000
v -0.966506 -0.472256 -0.875000
v -1.000000 -0.472256 -0.750000
v -1.000000 -0.472256 0.750000
v -0.875000 -0.472256 -0.966506
v -0.750000 -0.472256 -1.000000
v -0.875000 0.472256 -0.966506
v -0.750000 0.472256 -1.000000
v 0.750000 0.472256 -1.000000
v 0.875000 0.472256 -0.966506
v 0.875000 0.472256 -0.966506
v 0.875000 -0.472256 -0.966506
v 0.875000 -0.472256 -0.966506
v 0.750000 -0.472256 -1.000000
v 0.966506 -0.472256 -0.875000
v -0.966506 -0.472256 0.875000
v -0.750000 -0.472256 1.000000
v 0.391435 1.020850 -0.512724
v -0.509359 1.259444 -0.368609
v -0.390679 1.231719 0.240780
v -0.390679 1.231719 0.240780
v -0.264283 0.861171 0.664363
v 0.732492 0.426064 -0.839801
v -0.771565 0.410933 0.711611
v 0.445887 0.908048 0.076398
vn 0.9901 -0.0000 -0.1406
vn 0.8396 -0.0000 -0.5431
vn -0.0000 -1.0000 -0.0000
vn 0.9923 -0.0000 0.1242
vn 0.8622 -0.0000 0.5066
vn 0.4581 -0.0000 0.8889
vn 0.1192 -0.0000 0.9929
vn -0.0000 1.0000 -0.0000
vn 0.1188 -0.0000 0.9929
vn -0.1369 -0.0000 0.9906
vn -0.7071 -0.0000 0.7071
vn -0.8528 -0.0000 0.5222
vn -0.9916 -0.0000 0.1291
vn -0.9909 -0.0000 -0.1349
vn -0.8529 -0.0000 -0.5221
vn -0.8622 -0.0000 -0.5066
vn -0.4665 -0.0000 -0.8845
vn -0.1188 -0.0000 -0.9929
vn -0.1192 -0.0000 -0.9929
vn 0.1312 -0.0000 -0.9914
vn 0.7071 -0.0000 -0.7071
vn 0.8528 -0.0000 -0.5222
vn 0.2367 0.4572 0.8573
vn -0.6585 0.5422 0.5220
vn -0.7346 0.4454 -0.5118
vn 0.1854 0.6036 -0.7754
vn 0.7432 0.6680 -0.0378
vn 0.1894 0.9796 -0.0676
vn 0.8524 0.5117 0.1077
vn 0.8434 0.5370 -0.0179
vn 0.0047 0.2825 0.9592
vn 0.5984 0.3587 0.7164
vn -0.8333 0.4607 0.3055
vn -0.1861 0.3076 0.9332
vn -0.4161 0.2026 -0.8865
vn -0.9805 0.1553 -0.1202
vn 0.8576 0.5128 -0.0383
vn 0.0683 0.3192 -0.9452
vn 0.7048 0.6796 0.2033
vn -0.0386 0.5119 0.8582
vn -0.8273 0.5216 0.2086
vn -0.1120 0.5742 -0.8110
vn 0.1711 0.7461 -0.6435
vn 0.1967 0.9117 0.3608
vn 0.4236 0.9019 -0.0847
vn -0.1472 0.7223 0.6758
vn 0.1743 0.9440 -0.2802
vn 0.1904 0.9100 -0.3684
vn 0.1107 0.4145 0.9033
vn -0.6830 0.4702 0.5589
vn -0.6878 0.4812 -0.5435
vn 0.2554 0.4480 -0.8568
vn 0.8608 0.5078 -0.0328
vn -0.0129 0.9995 -0.0280
vn 0.7840 0.3873 0.4852
vn 0.9157 0.2259 -0.3323
vn -0.1161 0.2084 0.9711
vn 0.3156 0.3107 0.8966
vn -0.9160 0.2090 0.3424
vn -0.5078 0.2022 0.8374
vn -0.5146 0.2153 -0.8300
vn -0.9325 0.2205 -0.2860
vn 0.5451 0.1902 -0.8165
vn 0.0405 0.1947 -0.9800
vn 0.5815 0.5984 0.5511
vn -0.2946 0.4892 0.8209
vn -0.8196 0.5728 0.0149
vn -0.1973 0.5526 -0.8098
vn 0.6407 0.5551 -0.5305
vn 0.0505 0.8324 0.5519
vn 0.4595 0.8882 0.0028
vn -0.3951 0.8681 0.3004
vn -0.3533 0.8819 -0.3121
vn 0.4376 0.8127 -0.3847
vn 0.8529 -0.0000 0.5221
vn 0.9909 -0.0000 0.1349
vn 0.9916 -0.0000 -0.1291
vn 0.4665 -0.0000 0.8845
vn -0.2588 -0.0000 0.9659
vn -0.9923 -0.0000 -0.1242
vn -0.9901 -0.0000 0.1406
vn -0.4581 -0.0000 -0.8889
vn 0.2588 -0.0000 -0.9659
vn 0.1369 -0.0000 -0.9906
vn -0.8396 -0.0000 0.5431
vn -0.1312 -0.0000 0.9914
vn 0.6505 0.7586 0.0373
vn -0.6845 0.7078 -0.1748
vn -0.6783 0.6117 0.4071
vn 0.0586 0.9982 -0.0110
vn -0.5783 0.6007 0.5520
vn 0.2059 0.4351 -0.8765
vn -0.6872 0.6452 0.3339
vn -0.1162 0.8210 -0.5590
vt 0.162228 0.081213
vt 0.141949 0.348167
vt -0.000000 0.266954
vt 0.119233 0.768624
vt 0.269930 0.797583
vt 0.116628 0.787331
vt 0.272535 0.778876
vt 0.150391 0.536721
vt 0.303692 0.546973
vt 0.153004 0.516400
vt 0.477757 0.043219
vt 0.457479 0.322235
vt 0.315530 0.325453
vt 0.155024 0.498438
vt 0.306306 0.526653
vt 0.156058 0.485413
vt 0.308325 0.508690
vt 0.315605 0.368882
vt 0.309360 0.495666
vt 0.162304 0.358629
vt 0.315764 0.358506
vt 0.162462 0.348253
vt 0.315620 0.344340
vt 0.162319 0.334087
vt 0.162228 0.315200
vt 0.315529 0.091466
vt 0.254885 0.979512
vt 0.101468 0.989748
vt 0.101584 0.969260
vt 0.255275 0.961441
vt 0.101974 0.951188
vt 0.255985 0.948395
vt 0.102683 0.938142
vt 0.113375 0.811656
vt 0.266677 0.821908
vt 0.114600 0.801351
vt 0.267902 0.811604
vt 0.590153 0.078537
vt 0.664280 0.095669
vt 0.637240 0.138452
vt 0.562620 0.144545
vt 0.570973 0.112238
vt 0.624048 0.164270
vt 0.628085 0.285561
vt 0.590667 0.213691
vt 0.657111 0.228490
vt 0.709060 0.292393
vt 0.671113 0.295746
vt 0.687195 0.237377
vt 0.754350 0.196344
vt 0.720333 0.257086
vt 0.693645 0.189838
vt 0.666801 0.182873
vt 0.694173 0.167270
vt 0.725411 0.106443
vt 0.813983 0.281499
vt 0.779079 0.348664
vt 0.710664 0.371095
vt 0.634762 0.363183
vt 0.536398 0.292790
vt 0.490850 0.186828
vt 0.477757 0.097036
vt 0.525092 0.040668
vt 0.614547 0.000000
vt 0.700338 0.005323
vt 0.813983 0.033238
vt 0.639601 0.479950
vt 0.629878 0.503137
vt 0.603652 0.485631
vt 0.612154 0.442052
vt 0.625357 0.461913
vt 0.583590 0.467715
vt 0.521950 0.420905
vt 0.570794 0.434342
vt 0.528203 0.468137
vt 0.530794 0.581493
vt 0.506921 0.565578
vt 0.536787 0.540644
vt 0.602488 0.545282
vt 0.557091 0.568399
vt 0.577186 0.517236
vt 0.554202 0.495441
vt 0.520108 0.509421
vt 0.477757 0.428173
vt 0.607565 0.597578
vt 0.550295 0.622204
vt 0.516498 0.622756
vt 0.477757 0.612480
vt 0.497216 0.371095
vt 0.558616 0.378401
vt 0.619589 0.397570
vt 0.659760 0.427931
vt 0.675793 0.457112
vt 0.679488 0.497272
vt 0.664574 0.541235
vt -0.000000 0.032967
vt 0.002717 0.014276
vt 0.010139 0.002209
vt 0.020278 0.000000
vt 0.141949 0.036185
vt 0.152088 0.044425
vt 0.159511 0.060907
vt 0.159511 0.333891
vt 0.152089 0.345958
vt 0.020278 0.311982
vt 0.010139 0.303742
vt 0.002717 0.287261
vt 0.318246 0.071159
vt 0.325669 0.054677
vt 0.335808 0.046437
vt 0.457479 0.010252
vt 0.467618 0.012462
vt 0.475040 0.024528
vt 0.477757 0.277206
vt 0.475040 0.297513
vt 0.467618 0.313995
vt 0.335808 0.358420
vt 0.325669 0.356210
vt 0.318246 0.344144
vt 0.254769 1.000000
s 1
usemtl Material
f 103/1/8 96/2/8 87/3/8
f 1/4/1 32/5/22 2/6/2
f 91/7/77 4/8/4 90/9/76
f 5/10/5 90/9/76 4/8/4
f 3/11/3 93/12/3 19/13/3
f 94/14/78 89/15/75 5/10/5
f 11/16/9 8/17/6 94/14/78
f 11/16/9 120/18/86 9/19/7
f 12/20/10 99/21/79 120/18/86
f 14/22/11 119/23/85 15/21/11
f 16/24/12 107/13/81 119/23/85
f 18/25/13 106/26/80 107/13/81
f 23/27/16 20/28/14 21/29/15
f 24/30/17 21/29/15 110/31/82
f 25/32/18 110/31/82 27/33/19
f 25/32/18 28/34/20 117/35/84
f 114/36/83 117/35/84 28/34/20
f 2/6/2 31/37/21 29/36/21
f 33/38/23 49/39/39 54/40/44
f 34/41/24 125/42/91 123/43/89
f 35/44/25 51/45/41 122/46/88
f 36/47/26 52/48/42 58/49/48
f 37/50/27 121/51/87 55/52/45
f 55/52/45 58/49/48 38/53/28
f 55/52/45 121/51/87 58/49/48
f 53/51/43 36/47/26 58/49/48
f 58/49/48 57/46/47 38/53/28
f 58/49/48 52/48/42 57/46/47
f 52/48/42 35/44/25 122/46/88
f 57/46/47 124/43/90 38/53/28
f 122/46/88 51/45/41 123/43/89
f 51/45/41 34/41/24 123/43/89
f 124/43/90 54/40/44 38/53/28
f 56/43/46 50/42/40 54/40/44
f 50/42/40 33/38/23 54/40/44
f 54/40/44 55/54/45 38/53/28
f 54/40/44 49/39/39 55/54/45
f 49/39/39 37/55/27 55/54/45
f 40/56/30 121/51/87 37/50/27
f 40/56/30 47/57/37 121/51/87
f 126/57/92 36/47/26 53/51/43
f 48/58/38 52/48/42 36/47/26
f 48/58/38 45/59/35 52/48/42
f 45/59/35 35/44/25 52/48/42
f 46/60/36 51/45/41 35/44/25
f 46/60/36 43/61/33 51/45/41
f 43/61/33 34/41/24 51/45/41
f 127/62/93 125/42/91 34/41/24
f 44/62/34 41/63/31 50/42/40
f 41/63/31 33/38/23 50/42/40
f 42/64/32 49/39/39 33/38/23
f 42/64/32 39/65/29 49/39/39
f 39/65/29 37/55/27 49/39/39
f 126/57/92 48/58/38 36/47/26
f 45/59/35 46/60/36 35/44/25
f 43/61/33 127/62/93 34/41/24
f 41/63/31 42/64/32 33/38/23
f 39/65/29 40/66/30 37/55/27
f 59/67/49 75/68/65 80/69/70
f 60/70/50 76/71/66 82/72/72
f 61/73/51 77/74/67 83/75/73
f 62/76/52 78/77/68 128/78/94
f 63/79/53 79/80/69 81/81/71
f 81/81/71 84/78/74 64/82/54
f 81/81/71 79/80/69 84/78/74
f 79/80/69 62/76/52 84/78/74
f 128/78/94 83/83/73 64/82/54
f 128/78/94 78/77/68 83/83/73
f 78/84/68 61/73/51 83/75/73
f 83/75/73 82/72/72 64/82/54
f 83/75/73 77/74/67 82/72/72
f 77/74/67 60/70/50 82/72/72
f 82/72/72 80/69/70 64/82/54
f 82/72/72 76/71/66 80/69/70
f 76/71/66 59/67/49 80/69/70
f 80/69/70 81/81/71 64/82/54
f 80/69/70 75/68/65 81/81/71
f 75/68/65 63/79/53 81/81/71
f 66/85/56 79/80/69 63/79/53
f 66/85/56 73/86/63 79/80/69
f 73/86/63 62/76/52 79/80/69
f 74/87/64 78/77/68 62/76/52
f 74/87/64 71/88/61 78/77/68
f 71/89/61 61/73/51 78/84/68
f 72/90/62 77/74/67 61/73/51
f 72/90/62 69/91/59 77/74/67
f 69/91/59 60/70/50 77/74/67
f 70/92/60 76/71/66 60/70/50
f 70/92/60 67/93/57 76/71/66
f 67/93/57 59/67/49 76/71/66
f 68/94/58 75/68/65 59/67/49
f 68/94/58 65/95/55 75/68/65
f 65/95/55 63/79/53 75/68/65
f 73/86/63 74/87/64 62/76/52
f 71/89/61 72/90/62 61/73/51
f 69/91/59 70/92/60 60/70/50
f 67/93/57 68/94/58 59/67/49
f 65/95/55 66/85/56 63/79/53
f 87/3/8 86/96/8 85/97/8
f 85/97/8 113/98/8 112/99/8
f 112/99/8 111/100/8 26/101/8
f 26/101/8 104/102/8 103/1/8
f 103/1/8 102/25/8 101/103/8
f 101/103/8 97/104/8 96/2/8
f 96/2/8 95/105/8 10/106/8
f 10/106/8 88/107/8 87/3/8
f 87/3/8 85/97/8 112/99/8
f 112/99/8 26/101/8 103/1/8
f 103/1/8 101/103/8 96/2/8
f 96/2/8 10/106/8 87/3/8
f 87/3/8 112/99/8 103/1/8
f 1/4/1 91/7/77 32/5/22
f 91/7/77 1/4/1 4/8/4
f 5/10/5 89/15/75 90/9/76
f 19/13/3 22/26/3 105/108/3
f 105/108/3 108/109/3 109/110/3
f 109/110/3 30/111/3 115/112/3
f 115/112/3 118/113/3 3/11/3
f 3/11/3 6/114/3 7/115/3
f 7/115/3 92/116/3 93/12/3
f 93/12/3 13/117/3 100/118/3
f 100/118/3 17/119/3 19/13/3
f 19/13/3 105/108/3 109/110/3
f 109/110/3 115/112/3 3/11/3
f 3/11/3 7/115/3 93/12/3
f 93/12/3 100/118/3 19/13/3
f 19/13/3 109/110/3 3/11/3
f 94/14/78 8/17/6 89/15/75
f 11/16/9 9/19/7 8/17/6
f 11/16/9 12/20/10 120/18/86
f 12/20/10 98/22/79 99/21/79
f 14/22/11 16/24/12 119/23/85
f 16/24/12 18/25/13 107/13/81
f 18/25/13 20/1/14 106/26/80
f 23/27/16 106/120/80 20/28/14
f 24/30/17 23/27/16 21/29/15
f 25/32/18 24/30/17 110/31/82
f 25/32/18 27/33/19 28/34/20
f 114/36/83 116/37/83 117/35/84
f 2/6/2 32/5/22 31/37/21
